# AST/ASF file generated using VICON BodyLanguage
# -----------------------------------------------
:version 1.10
:name VICON
:units
  mass 1.0
  length 0.45
  angle deg
:documentation
   .ast/.asf automatically generated from VICON data using
   VICON BodyBuilder and BodyLanguage model FoxedUp or BRILLIANT.MOD
:root
   order TX TY TZ RX RY RZ
   axis XYZ
   position 0 0 0  
   orientation 0 0 0 
:bonedata
  begin
     id 1 
     name lhipjoint
     direction 0.690799 -0.707083 0.151096 
     length 2.54797 
     axis 0 0 0  XYZ
  end
  begin
     id 2 
     name lfemur
     direction 0.34202 -0.939693 0  
     length 7.21646  
     axis 0 0 20  XYZ
    dof rx ry rz
    limits (-160.0 20.0)
           (-70.0 70.0)
           (-60.0 70.0)
  end
  begin
     id 3 
     name ltibia
     direction 0.34202 -0.939693 0   
     length 8.16759   
     axis 0 0 20   XYZ
    dof rx
    limits (-10.0 170.0)
  end
  begin
     id 4 
     name lfoot
     direction 0.0487203 -0.133858 0.989802   
     length 1.93375   
     axis -90 7.62852e-016 20   XYZ
    dof rx rz
    limits (-45.0 90.0)
           (-70.0 20.0)
  end
  begin
     id 5 
     name ltoes
     direction 1.53453e-011 -4.21783e-011 1   
     length 0.979747   
     axis -90 7.62852e-016 20   XYZ
    dof rx
    limits (-90.0 20.0)
  end
  begin
     id 6 
     name rhipjoint
     direction -0.694693 -0.703425 0.150315   
     length 2.56122  
     axis 0 0 0  XYZ 
  end
  begin
     id 7 
     name rfemur
     direction -0.34202 -0.939693 0   
     length 7.36786   
     axis 0 0 -20   XYZ
    dof rx ry rz
    limits (-160.0 20.0)
           (-70.0 70.0)
           (-70.0 60.0)
  end
  begin
     id 8 
     name rtibia
     direction -0.34202 -0.939693 0   
     length 8.07288   
     axis 0 0 -20   XYZ
    dof rx
    limits (-10.0 170.0)
 end
 begin
     id 9 
     name rfoot
     direction -0.0428397 -0.117701 0.992125   
     length 1.88295  
     axis -90 -7.62852e-016 -20   XYZ
    dof rx rz
    limits (-45.0 90.0)
           (-20.0 70.0)
  end
  begin
     id 10 
     name rtoes
     direction -1.53456e-011 -4.2187e-011 1   
     length 0.955578   
     axis -90 -7.62852e-016 -20   XYZ
    dof rx
    limits (-90.0 20.0)
  end
  begin
     id 11 
     name lowerback
     direction 0.0288145 0.999398 -0.0193241   
     length 1.92149   
     axis 0 0 0   XYZ
    dof rx ry rz
    limits (-20.0 45.0)
           (-30.0 30.0)
           (-30.0 30.0)
  end
  begin
     id 12 
     name upperback
     direction 0.0233784 0.998099 0.0570278   
     length 1.90435   
     axis 0 0 0   XYZ
    dof rx ry rz
    limits (-20.0 45.0)
           (-30.0 30.0)
           (-30.0 30.0)
  end
  begin
     id 13 
     name thorax
     direction 0.0096694 0.997833 0.0650817   
     length 1.9111   
     axis 0 0 0   XYZ
    dof rx ry rz
    limits (-20.0 45.0)
           (-30.0 30.0)
           (-30.0 30.0)
  end
  begin
     id 14 
     name lowerneck
     direction 0.00516803 0.999916 0.0118722   
     length 1.74664   
     axis 0 0 0   XYZ
    dof rx ry rz
    limits (-20.0 45.0)
           (-30.0 30.0)
           (-30.0 30.0)
  end
  begin
     id 15 
     name upperneck
     direction -0.0510851 0.996117 -0.071696   
     length 1.68498   
     axis 0 0 0   XYZ
    dof rx ry rz
    limits (-20.0 45.0)
           (-30.0 30.0)
           (-30.0 30.0)
  end
  begin
     id 16
     name head
     direction -0.019188 0.999436 -0.0275702  
     length 1.83483  
     axis 0 0 0   XYZ
    dof rx ry rz
    limits (-20.0 45.0)
           (-30.0 30.0)
           (-30.0 30.0)
  end
  begin
     id 17 
     name lclavicle
     direction 0.967006 0.248456 -0.0562957  
     length 3.39395  
     axis 0 0 0   XYZ
    dof ry rz
    limits (-20.0 10.0)
           (0.0 20.0)
  end
  begin
     id 18 
     name lhumerus
     direction 1 -4.48962e-011 -5.62711e-019   
     length 5.24318   
     axis 180 -30 -90   XYZ
    dof rx ry rz
    limits (-60.0 90.0)
           (-90.0 90.0)
           (-90.0 90.0)
  end
  begin
     id 19
     name lradius
     direction 1 -4.48966e-011 7.90625e-027   
     length 2.98999   
     axis 180 -30 -90   XYZ
    dof rx
    limits (-10.0 170.0)
  end
  begin
     id 20
     name lwrist
     direction 1 -4.48959e-011 1.61068e-026   
     length 1.49499   
     axis -9.31229e-015 90 90   XYZ
    dof ry
    limits (-180.0 0.0)
 end
  begin
     id 21 
     name lhand
     direction 1 -4.49017e-011 3.22136e-026   
     length 0.726745   
     axis -2.0555e-014 90 90   XYZ
    dof rx rz
    limits (-90.0 90.0)
           (-45.0 45.0)
  end
  begin
     id 22 
     name lfingers
     direction 1 -4.4898e-011 6.44272e-026   
     length 0.58592   
     axis -4.11101e-014 90 90   XYZ
    dof rx
    limits (0.0 90.0)
  end
  begin
     id 23
     name lthumb
     direction 0.707107 -6.34922e-011 0.707107   
     length 0.841268   
     axis -90 45 2.85299e-015   XYZ
    dof rx rz
    limits (-45.0 45.0)
           (-45.0 45.0)
  end
  begin
     id 24 
     name rclavicle
     direction -0.972232 0.230238 0.0419005   
     length 3.40416  
     axis 0 0 0   XYZ 
    dof ry rz
    limits (-10.0 20.0)
           (-20.0 0.0)
  end
  begin
     id 25 
     name rhumerus
     direction -1 -4.48976e-011 2.48487e-027  
     length 5.37045   
     axis 180 30 90   XYZ
    dof rx ry rz
    limits (-90.0 60.0)
           (-90.0 90.0)
           (-90.0 90.0)
  end
  begin
     id 26 
     name rradius
     direction -1 -4.48942e-011 7.87951e-027   
     length 2.92792   
     axis 180 30 90   XYZ
    dof rx
    limits (-10.0 170.0)
  end
  begin
     id 27 
     name rwrist
     direction -1 -4.48969e-011 1.61068e-026   
     length 1.46396   
     axis -9.31229e-015 -90 -90   XYZ
    dof ry
    limits (-180.0 0.0)
  end
  begin
     id 28
     name rhand
     direction -1 -4.49043e-011 3.22136e-026   
     length 0.784497   
     axis -2.0555e-014 -90 -90   XYZ
    dof rx rz
    limits (-90.0 90.0)
           (-45.0 45.0)
  end
  begin
     id 29
     name rfingers
     direction -1 -4.48823e-011 6.44272e-026   
     length 0.632482   
     axis -4.11101e-014 -90 -90   XYZ
    dof rx
    limits (0.0 90.0)
  end
  begin
     id 30
     name rthumb
     direction -0.707107 -6.34923e-011 0.707107   
     length 0.908121   
     axis -90 -45 -2.85299e-015   XYZ
    dof rx rz
    limits (-45.0 45.0)
           (-45.0 45.0)
  end
:hierarchy
  begin
    root lhipjoint rhipjoint lowerback
    lhipjoint lfemur
    lfemur ltibia
    ltibia lfoot
    lfoot ltoes
    rhipjoint rfemur
    rfemur rtibia
    rtibia rfoot
    rfoot rtoes
    lowerback upperback
    upperback thorax
    thorax lowerneck lclavicle rclavicle
    lowerneck upperneck
    upperneck head
    lclavicle lhumerus
    lhumerus lradius
    lradius lwrist
    lwrist lhand lthumb
    lhand lfingers
    rclavicle rhumerus
    rhumerus rradius
    rradius rwrist
    rwrist rhand rthumb
    rhand rfingers
  end

#!OML:ASF E:\Style6\Style6.ASF
:FULLY-SPECIFIED
:DEGREES
1817
root 0.244238 18.2126 -0.117639 17.1072 2.24881 -1.47394
lowerback 4.69876 -1.37725 3.86037
upperback -0.315816 -1.54142 2.48451
thorax -2.996 -0.808154 0.508085
lowerneck 8.58162 -5.59052 2.20752
upperneck -14.9221 -8.15607 -5.01575
head -6.23868 -3.72002 -1.28835
rclavicle 6.95746e-015 -1.82882e-014
rhumerus -1.80007 25.6038 -100.228
rradius 138.398
rwrist 50.6039
rhand 30.824 -6.31729
rfingers 7.12502
rthumb 54.4462 -24.8491
lclavicle 6.95746e-015 -1.82882e-014
lhumerus -2.41785 -18.1842 93.4742
lradius 133.599
lwrist -31.6058
lhand 7.38217 36.4701
lfingers 7.12502
lthumb 32.6394 63.5457
rfemur -25.9776 11.1807 17.1782
rtibia 16.6719
rfoot -7.64216 -21.4574
rtoes 7.53148
lfemur -26.9513 -16.2712 -10.9143
ltibia 20.8617
lfoot -3.61071 17.0612
ltoes -20.3581
1818
root 0.245408 18.2088 -0.120394 17.0934 2.23752 -1.4869
lowerback 4.73078 -1.37371 3.87128
upperback -0.314294 -1.53385 2.49718
thorax -3.01225 -0.804617 0.515336
lowerneck 8.67447 -5.50381 2.24021
upperneck -15.0036 -8.04404 -5.06388
head -6.27959 -3.66032 -1.31483
rclavicle 9.54166e-015 -1.51076e-014
rhumerus -1.7705 25.5636 -100.205
rradius 138.374
rwrist 50.5754
rhand 30.83 -6.33639
rfingers 7.12502
rthumb 54.4515 -24.8645
lclavicle 9.54166e-015 -1.51076e-014
lhumerus -2.43409 -18.2308 93.4796
lradius 133.611
lwrist -31.6499
lhand 7.27816 36.5405
lfingers 7.12502
lthumb 32.5404 63.6365
rfemur -26.1201 11.0079 17.2369
rtibia 16.9465
rfoot -7.59376 -21.2921
rtoes 7.07094
lfemur -27.0107 -15.9001 -11.0197
ltibia 21.007
lfoot -3.4691 16.6976
ltoes -21.325
1819
root 0.247358 18.2056 -0.123714 17.0674 2.18564 -1.46619
lowerback 4.73439 -1.33769 3.83745
upperback -0.265175 -1.48934 2.50782
thorax -2.96139 -0.780897 0.540959
lowerneck 8.70038 -5.43445 2.27804
upperneck -15.0963 -7.96135 -5.13966
head -6.31493 -3.61423 -1.35023
rclavicle 3.97569e-016 -2.18663e-014
rhumerus -1.6255 25.5045 -100.086
rradius 138.341
rwrist 50.5814
rhand 30.8177 -6.38625
rfingers 7.12502
rthumb 54.4406 -24.922
lclavicle 3.97569e-016 -2.18663e-014
lhumerus -2.35516 -18.3521 93.4974
lradius 133.59
lwrist -31.5984
lhand 7.1 36.6091
lfingers 7.12502
lthumb 32.3709 63.7399
rfemur -26.2394 10.8033 17.276
rtibia 17.2114
rfoot -7.38613 -21.0738
rtoes 5.78097
lfemur -27.0433 -15.5565 -11.167
ltibia 21.1508
lfoot -3.52272 16.3632
ltoes -21.2893
1820
root 0.249053 18.2016 -0.128073 17.0697 2.09923 -1.35504
lowerback 4.89436 -1.31034 3.73071
upperback -0.335025 -1.44817 2.46584
thorax -3.12104 -0.761352 0.559621
lowerneck 8.81107 -5.36949 2.39158
upperneck -15.1613 -7.87997 -5.27329
head -6.36159 -3.56715 -1.41392
rclavicle -1.37161e-014 5.56597e-015
rhumerus -1.73067 25.4657 -100.103
rradius 138.343
rwrist 50.6653
rhand 30.7493 -6.40229
rfingers 7.12502
rthumb 54.3794 -24.9805
lclavicle -1.37161e-014 5.56597e-015
lhumerus -2.46069 -18.4084 93.5074
lradius 133.561
lwrist -31.6469
lhand 7.05266 36.5584
lfingers 7.12502
lthumb 32.3258 63.6984
rfemur -26.4116 10.6385 17.1939
rtibia 17.4947
rfoot -7.11631 -20.9296
rtoes 3.90923
lfemur -27.1002 -15.2464 -11.3954
ltibia 21.2792
lfoot -3.54937 16.0664
ltoes -21.4391
1821
root 0.250957 18.1979 -0.133919 17.088 2.05833 -1.24832
lowerback 4.79802 -1.30823 3.62767
upperback -0.254495 -1.46092 2.44162
thorax -2.9817 -0.764199 0.589037
lowerneck 8.85733 -5.29098 2.42551
upperneck -15.3216 -7.78246 -5.3069
head -6.41923 -3.51534 -1.43587
rclavicle -1.61016e-014 1.98785e-014
rhumerus -1.60774 25.4889 -100.014
rradius 138.339
rwrist 50.676
rhand 30.6927 -6.40417
rfingers 7.12502
rthumb 54.3286 -25.0176
lclavicle -1.61016e-014 1.98785e-014
lhumerus -2.31847 -18.3483 93.4614
lradius 133.555
lwrist -31.7721
lhand 7.26729 36.4786
lfingers 7.12502
lthumb 32.5301 63.5767
rfemur -26.5952 10.5054 17.0858
rtibia 17.7577
rfoot -7.23721 -20.7459
rtoes 4.35314
lfemur -27.2082 -14.9876 -11.5886
ltibia 21.422
lfoot -3.54768 15.7964
ltoes -21.9287
1822
root 0.253889 18.1936 -0.138755 17.0453 2.02946 -1.19191
lowerback 4.97666 -1.31407 3.58554
upperback -0.308336 -1.45901 2.43998
thorax -3.13674 -0.764519 0.616391
lowerneck 8.9372 -5.20234 2.37348
upperneck -15.3088 -7.66655 -5.30882
head -6.42232 -3.45456 -1.43642
rclavicle 8.15017e-015 4.77083e-015
rhumerus -1.73853 25.499 -100.032
rradius 138.359
rwrist 50.6894
rhand 30.6442 -6.36934
rfingers 7.12502
rthumb 54.2852 -25.0127
lclavicle 8.15017e-015 4.77083e-015
lhumerus -2.45232 -18.295 93.5192
lradius 133.595
lwrist -31.846
lhand 7.41877 36.4488
lfingers 7.12502
lthumb 32.6742 63.5172
rfemur -26.6824 10.3611 17.0595
rtibia 17.9799
rfoot -7.24972 -20.5805
rtoes 4.21643
lfemur -27.2659 -14.7811 -11.7391
ltibia 21.605
lfoot -3.53281 15.6241
ltoes -22.4788
1823
root 0.254915 18.1899 -0.142746 17.0737 1.97324 -1.26475
lowerback 4.97017 -1.28635 3.62707
upperback -0.309439 -1.41871 2.47939
thorax -3.13366 -0.744835 0.630585
lowerneck 9.01504 -5.09642 2.36404
upperneck -15.3725 -7.52939 -5.33365
head -6.45111 -3.38278 -1.45242
rclavicle 7.95139e-015 -1.43125e-014
rhumerus -1.76631 25.4855 -99.993
rradius 138.309
rwrist 50.7041
rhand 30.536 -6.30537
rfingers 7.12502
rthumb 54.1882 -25.0154
lclavicle 7.95139e-015 -1.43125e-014
lhumerus -2.4579 -18.2727 93.5346
lradius 133.592
lwrist -31.8118
lhand 7.46137 36.4114
lfingers 7.12502
lthumb 32.7147 63.4714
rfemur -26.8525 10.2981 17.1408
rtibia 18.1691
rfoot -7.18188 -20.4483
rtoes 3.91254
lfemur -27.4192 -14.4941 -11.7309
ltibia 21.8256
lfoot -3.67726 15.4344
ltoes -22.2555
1824
root 0.254602 18.1854 -0.147844 17.0845 1.92829 -1.41462
lowerback 4.87533 -1.2528 3.7389
upperback -0.228369 -1.37453 2.5345
thorax -2.99721 -0.722175 0.617714
lowerneck 9.03471 -5.00144 2.38047
upperneck -15.4726 -7.40635 -5.35751
head -6.48279 -3.32002 -1.47235
rclavicle 4.17448e-015 -1.59028e-014
rhumerus -1.64023 25.4596 -99.8926
rradius 138.268
rwrist 50.7354
rhand 30.456 -6.16516
rfingers 7.12502
rthumb 54.1164 -24.9242
lclavicle 4.17448e-015 -1.59028e-014
lhumerus -2.27731 -18.2777 93.4849
lradius 133.551
lwrist -31.818
lhand 7.47224 36.4101
lfingers 7.12502
lthumb 32.7251 63.4679
rfemur -26.9986 10.2313 17.3234
rtibia 18.3351
rfoot -7.00701 -20.3278
rtoes 2.84354
lfemur -27.5774 -14.0906 -11.6705
ltibia 22.0888
lfoot -3.72487 15.1402
ltoes -22.5772
1825
root 0.255783 18.1808 -0.153433 17.0753 1.91581 -1.44354
lowerback 5.07269 -1.25793 3.79855
upperback -0.314571 -1.36252 2.53604
thorax -3.19863 -0.719926 0.591631
lowerneck 9.04197 -4.90811 2.41886
upperneck -15.4059 -7.27943 -5.42961
head -6.46171 -3.25597 -1.5131
rclavicle 1.25234e-014 -2.94201e-014
rhumerus -1.73747 25.424 -99.9422
rradius 138.294
rwrist 50.7636
rhand 30.4584 -6.10224
rfingers 7.12502
rthumb 54.1186 -24.8597
lclavicle 1.25234e-014 -2.94201e-014
lhumerus -2.35042 -18.289 93.47
lradius 133.569
lwrist -31.8588
lhand 7.62299 36.4483
lfingers 7.12502
lthumb 32.8685 63.4762
rfemur -27.1174 10.2003 17.3418
rtibia 18.5136
rfoot -6.87858 -20.2234
rtoes 1.58683
lfemur -27.7375 -13.7183 -11.7426
ltibia 22.387
lfoot -3.89876 14.804
ltoes -22.5113
1826
root 0.258307 18.1746 -0.15909 17.0666 1.89616 -1.43335
lowerback 4.93479 -1.25959 3.78705
upperback -0.177958 -1.37882 2.55154
thorax -2.97938 -0.724276 0.609302
lowerneck 9.05044 -4.79901 2.39931
upperneck -15.6082 -7.14065 -5.40283
head -6.51994 -3.18604 -1.51227
rclavicle -1.49089e-014 1.51076e-014
rhumerus -1.51686 25.4753 -99.8278
rradius 138.284
rwrist 50.7244
rhand 30.4267 -6.11341
rfingers 7.12502
rthumb 54.0902 -24.8903
lclavicle -1.49089e-014 1.51076e-014
lhumerus -2.08579 -18.3875 93.3633
lradius 133.564
lwrist -31.9291
lhand 7.61518 36.7075
lfingers 7.12502
lthumb 32.8611 63.737
rfemur -27.2682 10.1371 17.3425
rtibia 18.7849
rfoot -6.54449 -20.154
rtoes -0.976773
lfemur -27.8892 -13.3666 -11.8614
ltibia 22.6617
lfoot -4.05523 14.4911
ltoes -22.3532
1827
root 0.260543 18.1666 -0.166069 17.0307 1.82422 -1.4504
lowerback 5.03863 -1.24521 3.78755
upperback -0.15581 -1.3543 2.55674
thorax -3.0143 -0.712218 0.614656
lowerneck 9.08332 -4.68819 2.4598
upperneck -15.671 -6.99057 -5.45311
head -6.54328 -3.11105 -1.55037
rclavicle 1.74931e-014 -1.43125e-014
rhumerus -1.50807 25.5021 -99.8114
rradius 138.282
rwrist 50.6962
rhand 30.2967 -6.18941
rfingers 7.12502
rthumb 53.9735 -25.0454
lclavicle 1.74931e-014 -1.43125e-014
lhumerus -1.99698 -18.5594 93.2796
lradius 133.616
lwrist -32.0121
lhand 7.65455 37.3074
lfingers 7.12502
lthumb 32.8985 64.329
rfemur -27.4215 10.0438 17.41
rtibia 19.1137
rfoot -6.74864 -20.0427
rtoes -0.270924
lfemur -28.0093 -13.0067 -11.9644
ltibia 22.9492
lfoot -4.14052 14.1843
ltoes -22.6364
1828
root 0.266128 18.1595 -0.174579 16.9348 1.74446 -1.36061
lowerback 5.20256 -1.2475 3.74702
upperback -0.1085 -1.35364 2.50731
thorax -3.05765 -0.711653 0.589383
lowerneck 9.18849 -4.6 2.55065
upperneck -15.824 -6.87207 -5.5056
head -6.61036 -3.04997 -1.5892
rclavicle 1.53064e-014 2.62396e-014
rhumerus -1.32881 25.4948 -99.7969
rradius 138.283
rwrist 50.6901
rhand 30.4204 -6.23407
rfingers 7.12502
rthumb 54.0845 -25.0148
lclavicle 1.53064e-014 2.62396e-014
lhumerus -1.84241 -18.6455 93.1803
lradius 133.667
lwrist -32.0786
lhand 7.79104 37.5848
lfingers 7.12502
lthumb 33.0283 64.579
rfemur -27.5443 9.88842 17.3495
rtibia 19.4782
rfoot -7.20897 -19.8188
rtoes 1.8446
lfemur -28.1009 -12.6118 -12.231
ltibia 23.3007
lfoot -4.2967 13.8471
ltoes -22.826
1829
root 0.2755 18.1475 -0.185312 16.8684 1.90865 -1.32389
lowerback 5.37577 -1.32601 3.89652
upperback -0.0899253 -1.43955 2.49417
thorax -3.14156 -0.757356 0.503411
lowerneck 9.20055 -4.50433 2.49973
upperneck -15.9296 -6.74459 -5.44844
head -6.63687 -2.98783 -1.57347
rclavicle 3.77691e-015 -2.22639e-014
rhumerus -1.11272 25.4833 -99.7334
rradius 138.338
rwrist 50.653
rhand 30.6292 -6.2804
rfingers 7.12502
rthumb 54.2718 -24.933
lclavicle 3.77691e-015 -2.22639e-014
lhumerus -1.66909 -18.6828 93.0964
lradius 133.651
lwrist -32.1074
lhand 7.81066 37.4387
lfingers 7.12502
lthumb 33.047 64.429
rfemur -27.6869 9.52074 17.4171
rtibia 19.8748
rfoot -6.58436 -19.7626
rtoes -2.54076
lfemur -28.3493 -12.3311 -12.3731
ltibia 23.7295
lfoot -4.5408 13.4185
ltoes -22.616
1830
root 0.281079 18.1327 -0.198088 16.8401 2.01864 -1.34435
lowerback 5.58737 -1.3717 4.00582
upperback -0.112442 -1.47874 2.51236
thorax -3.28709 -0.780146 0.470563
lowerneck 9.11483 -4.38004 2.34688
upperneck -15.8984 -6.57125 -5.30651
head -6.59447 -2.90855 -1.52115
rclavicle 3.77691e-015 -1.82882e-014
rhumerus -1.03069 25.4777 -99.6386
rradius 138.424
rwrist 50.6527
rhand 30.8194 -6.33206
rfingers 7.12502
rthumb 54.4421 -24.8667
lclavicle 3.77691e-015 -1.82882e-014
lhumerus -1.59178 -18.7346 93.0257
lradius 133.629
lwrist -32.1006
lhand 7.77259 37.1308
lfingers 7.12502
lthumb 33.0108 64.1287
rfemur -27.9158 9.22682 17.5268
rtibia 20.3169
rfoot -6.04727 -19.7301
rtoes -5.93901
lfemur -28.6588 -11.9581 -12.4604
ltibia 24.2022
lfoot -4.66568 12.986
ltoes -23.2384
1831
root 0.284494 18.1196 -0.210294 16.8088 2.00264 -1.38224
lowerback 5.75637 -1.36543 4.04582
upperback -0.101741 -1.45663 2.544
thorax -3.37079 -0.770367 0.483321
lowerneck 9.07392 -4.26618 2.212
upperneck -15.9125 -6.42222 -5.22382
head -6.57854 -2.8356 -1.48705
rclavicle 8.54774e-015 -1.27222e-014
rhumerus -0.908071 25.5215 -99.5063
rradius 138.451
rwrist 50.6373
rhand 30.8106 -6.45155
rfingers 7.12502
rthumb 54.4342 -24.9917
lclavicle 8.54774e-015 -1.27222e-014
lhumerus -1.42023 -18.7022 92.9859
lradius 133.592
lwrist -32.0467
lhand 7.77209 36.6699
lfingers 7.12502
lthumb 33.0103 63.668
rfemur -28.1546 9.00215 17.6278
rtibia 20.7457
rfoot -6.12357 -19.493
rtoes -6.36481
lfemur -28.9683 -11.4881 -12.5594
ltibia 24.7621
lfoot -4.93426 12.5793
ltoes -23.3463
